<?xml version="1.0" encoding="UTF-8"?>
<svg width="305px" height="156px" viewBox="0 0 305 156" version="1.1" xmlns="http://www.w3.org/2000/svg" xmlns:xlink="http://www.w3.org/1999/xlink">
    <title>Drawing 3 Copy 5</title>
    <g id="Drawing-3-Copy-5" stroke="none" stroke-width="1" fill="none" fill-rule="evenodd">
        <path d="M54,27.0266752 C53.5460804,27.0089465 53.0899186,27 52.6316782,27 C33.5051305,27 18,42.5861638 18,61.8126712 C18,69.6507754 20.5768948,76.883868 24.9255208,82.7025777 C25.4516545,83.4065745 26.0037231,84.0898674 26.5803008,84.7510227" id="Combined-Shape-Copy-8" stroke="#000000" stroke-width="4" stroke-linecap="round"></path>
        <path d="M72,91 C81.6340488,84.7638626 88,73.987026 88,61.737612 C88,61.5182942 87.9979593,61.2994484 87.9938957,61.0810922 C87.992942,61.0298488 87.991877,60.9786322 87.9907007,60.9274429" id="Combined-Shape-Copy-9" stroke="#000000" stroke-width="4" stroke-linecap="round"></path>
        <g id="connect-signal-copy-2" transform="translate(60.000000, 19.000000)" stroke="#5B9EDD" stroke-linecap="round" stroke-width="4.5">
            <path d="M25.7387736,31.2333583 C22.6815991,20.9092718 14.475926,12.7968894 4.09625064,9.87070734" id="Oval"></path>
            <path d="M15.0660329,35.2700045 C12.8117943,28.1876489 7.14610174,22.6267098 2.04281037e-14,20.5182319" id="Oval"></path>
            <path d="M35.6336273,27.3714626 C31.7186987,14.1877391 21.272483,3.81372996 8.04554516,-5.32907052e-15" id="Oval"></path>
        </g>
        <g id="Group-7" transform="translate(52.500000, 110.000000) scale(1, -1) translate(-52.500000, -110.000000) translate(32.000000, 92.000000)" stroke="#000000" stroke-linecap="round" stroke-linejoin="round" stroke-width="4">
            <path d="M40.069592,0 L40.069592,2.82601001 C40.069592,6.13971851 37.3833005,8.82601001 34.069592,8.82601001 L4.36269189,8.82601001 C1.95324369,8.82601001 2.29218623e-13,10.7792537 2.27373675e-13,13.1887019 C2.27668748e-13,15.5981501 1.95324369,17.5513938 4.36269189,17.5513938 L35.0899594,17.5513938 C37.8401346,17.5513938 40.069592,19.7808513 40.069592,22.5310264 C40.069592,25.2819219 37.8408558,27.5126528 35.0899614,27.5151137 L6.37863009,27.5407981 C4.04311976,27.5428874 2.15092182,29.4367788 2.15092182,31.77229 C2.15092182,34.1071898 4.04373204,36 6.37863178,36 L30.9407461,36 L30.9407461,36" id="Line-3-Copy-4" transform="translate(20.034796, 18.000000) scale(1, -1) translate(-20.034796, -18.000000) "></path>
        </g>
        <path d="M27.4683028,84.1813817 C28.4205046,81.968553 29.7525743,79.5505466 31.4645117,76.9273625 C36.4876115,69.2305185 40.10265,64.4022248 41.171095,62.9360383 C43.5512741,59.6698091 46.9654123,58.4467137 48.8690222,62.9360383 C49.0779791,63.428826 46.8169307,58.0667011 43.1845952,60.9158486 C37.6132207,65.285948 36.7859189,78.9962583 44.3040968,75.9637215 C51.8222747,72.9311847 48.8690222,69.7808598 57,68.648667 C61.7134404,67.9923471 64.2078079,67.6678906 64.4831026,67.6752975" id="Line-Copy" stroke="#000000" stroke-width="2.5" stroke-linejoin="bevel"></path>
        <path d="M58.7306197,68.8834886 C57.5768732,74.2944962 58.1042971,78.1523072 60.3128913,80.4569215 C62.5214854,82.7615358 71.3910636,76.3233707 86.9216258,61.142426" id="Line-Copy-2" stroke="#000000" stroke-width="2.5" stroke-linecap="square"></path>
        <text id="Chuangtu-Technology" font-family="Helvetica-Light, Helvetica" font-size="11" font-weight="300" letter-spacing="2.1" fill="#000000">
            <tspan x="110" y="111">CHUANGTU TECHNOLOGY</tspan>
        </text>
        <text id="创图信息" font-family="PingFangHK-Medium, PingFang HK" font-size="33.6" font-weight="400" line-spacing="43.2" letter-spacing="15" fill="#000000">
            <tspan x="110" y="91">创图信息</tspan>
        </text>
    </g>
</svg>